<svg width="60" height="60" viewBox="0 0 60 60" fill="none" xmlns="http://www.w3.org/2000/svg">
<g clip-path="url(#clip0_33_1505)">
<path d="M37.5239 32.6449C40.0385 30.8847 41.9599 28.2905 43.001 25.2497C44.042 22.2089 44.1468 18.8848 43.2998 15.7742C42.4527 12.6635 40.6992 9.93325 38.3013 7.99131C35.9034 6.04937 32.9898 5 29.9959 5C27.0019 5 24.0883 6.04937 21.6904 7.99131C19.2925 9.93325 17.539 12.6635 16.692 15.7742C15.8449 18.8848 15.9497 22.2089 16.9908 25.2497C18.0318 28.2905 19.9532 30.8847 22.4679 32.6449C22.6433 32.7702 22.7839 32.9448 22.8747 33.1501C22.9655 33.3554 23.0029 33.5836 22.983 33.8102C22.9631 34.0367 22.8867 34.2532 22.7618 34.4363C22.637 34.6194 22.4685 34.7622 22.2744 34.8494C19.1196 36.2619 16.3446 38.5134 14.2062 41.3958C12.0678 44.2781 10.635 47.6982 10.0405 51.3395C9.97011 51.7907 9.99166 52.253 10.1036 52.6942C10.2156 53.1354 10.4153 53.5448 10.6888 53.8935C10.9622 54.2423 11.3028 54.522 11.6866 54.7132C12.0704 54.9043 12.4881 55.0022 12.9105 55H47.0911C47.5134 55.0019 47.9309 54.9038 48.3145 54.7126C48.6981 54.5214 49.0385 54.2416 49.3117 53.8928C49.585 53.5441 49.7846 53.1349 49.8965 52.6938C50.0084 52.2527 50.0299 51.7905 49.9595 51.3395C49.3635 47.7005 47.93 44.2831 45.7917 41.4033C43.6533 38.5235 40.8791 36.2743 37.7256 34.8637C37.5294 34.7771 37.359 34.6337 37.2329 34.4493C37.1068 34.2649 37.0298 34.0466 37.0104 33.8181C36.9909 33.5896 37.0298 33.3597 37.1227 33.1535C37.2155 32.9472 37.3589 32.7725 37.5371 32.6485L37.5239 32.6449Z" fill="#6394C0"/>
<path d="M59.9723 44.5086C59.5762 42.0328 58.6227 39.7079 57.2002 37.7488C55.7776 35.7897 53.932 34.2599 51.8341 33.3009C51.7038 33.2425 51.5905 33.1454 51.5067 33.0204C51.4229 32.8954 51.3717 32.7473 51.3589 32.5922C51.346 32.4371 51.3719 32.2811 51.4338 32.1413C51.4956 32.0014 51.591 31.8831 51.7095 31.7994C53.3502 30.6314 54.614 28.9169 55.3192 26.9026C56.0244 24.8882 56.1345 22.678 55.6338 20.5899C55.1331 18.5018 54.0473 16.6436 52.5327 15.2826C51.0181 13.9216 49.1528 13.1281 47.2053 13.0163C46.8223 12.9945 46.4385 12.9988 46.056 13.0291C47.2375 16.4838 47.4835 20.2453 46.764 23.8526C46.0444 27.4599 44.3906 30.7563 42.0051 33.3377C46.7345 36.4365 50.3398 41.2663 52.1995 46.9945H58.0607C58.3415 46.9962 58.6194 46.93 58.8747 46.8005C59.13 46.6709 59.3568 46.4811 59.539 46.2443C59.7212 46.0075 59.8546 45.7295 59.9297 45.4297C60.0049 45.1299 60.02 44.8155 59.974 44.5086H59.9723ZM17.9857 33.3469C15.6061 30.759 13.9559 27.4612 13.2356 23.8541C12.5153 20.247 12.7559 16.4858 13.9283 13.0273L13.7921 13.0163C11.7595 12.889 9.74613 13.5111 8.06637 14.7854C6.38661 16.0596 5.13504 17.9143 4.50711 20.0598C3.87917 22.2052 3.91023 24.5207 4.59544 26.6445C5.28064 28.7684 6.58141 30.581 8.29461 31.7994C8.41252 31.8837 8.50723 32.0023 8.56841 32.1423C8.62959 32.2822 8.65488 32.4381 8.64151 32.5929C8.62814 32.7476 8.57662 32.8954 8.4926 33.0199C8.40857 33.1444 8.29527 33.241 8.16506 33.299C6.06695 34.2582 4.22118 35.7883 2.79863 37.7477C1.37607 39.7072 0.422724 42.0325 0.0268345 44.5086C-0.0199173 44.8158 -0.00545047 45.1306 0.0692207 45.431C0.143892 45.7313 0.27696 46.01 0.459097 46.2473C0.641233 46.4847 0.86803 46.6751 1.12359 46.8051C1.37914 46.9351 1.65728 47.0016 1.93849 47H7.79635C9.65418 41.2749 13.2557 36.4468 17.9808 33.3469H17.9857Z" fill="#B1C6DA"/>
</g>
<defs>
<clipPath id="clip0_33_1505">
<rect width="60" height="60" fill="white"/>
</clipPath>
</defs>
</svg>
